<?xml version="1.0" encoding="utf-8"?>
<!DOCTYPE svg PUBLIC "-//W3C//DTD SVG 1.1//EN" "http://www.w3.org/Graphics/SVG/1.1/DTD/svg11.dtd">
<svg version="1.1" id="05" xmlns="http://www.w3.org/2000/svg" xmlns:xlink="http://www.w3.org/1999/xlink" x="0px"
	 y="0px" width="252.285px" height="252.285px" viewBox="0 0 252.285 252.285" enable-background="new 0 0 252.285 252.285"
	 xml:space="preserve">
<path id="_x35__1_" fill="none" stroke="#000000" stroke-width="0.25" stroke-linecap="round" stroke-linejoin="round" d="
	M246.613,203.721V48.56c0-4.677,1.395-12.724,3.1-14.323c0,0,2.568-4.82,2.568-12.977c0-11.74-9.518-21.26-21.26-21.26
	c-8.154,0-12.977,2.568-12.977,2.568c-1.601,1.706-9.646,3.102-14.322,3.102h-1.047v14.172c0,1.56,1.275,2.835,2.834,2.835h8.506
	c3.938,0.149,8.504,0.81,8.504-1.417c0-4.696,3.807-8.504,8.504-8.504s8.504,3.808,8.504,8.504c0,4.696-3.807,8.504-8.504,8.504
	c-2.221,0-1.561,4.544-1.428,8.504l0.01,175.744c0,4.182-0.816,8.504,1.418,8.504c4.695,0,8.504,3.807,8.504,8.504
	c0,4.694-3.809,8.504-8.504,8.504c-4.697,0-8.504-3.81-8.504-8.504c0-2.235-4.318-1.418-8.504-1.418H38.268
	c-3.938-0.149-8.504-0.81-8.504,1.418c0,4.694-3.809,8.504-8.504,8.504c-4.699,0-8.504-3.81-8.504-8.504
	c0-4.697,3.805-8.504,8.504-8.504c2.219,0,1.561-4.545,1.426-8.504l-0.01-175.744c0-4.183,0.816-8.504-1.416-8.504
	c-4.695,0-8.504-3.808-8.504-8.504c0-4.696,3.809-8.504,8.504-8.504c4.695,0,8.504,3.808,8.504,8.504
	c0,2.234,4.316,1.417,8.504,1.417h8.504c1.559,0,2.834-1.275,2.834-2.835V5.67h-1.047c-4.676,0-12.723-1.396-14.322-3.102
	c0,0-4.82-2.568-12.977-2.568C9.52,0,0,9.52,0,21.26c0,8.156,2.561,13.185,2.568,12.977c1.713,1.393,3.1,9.646,3.1,14.323v155.161
	c0,4.676-1.395,12.723-3.1,14.321c0,0-2.568,4.822-2.568,12.978c0,11.742,9.52,21.26,21.26,21.26c8.156,0,12.977-2.567,12.977-2.567
	c1.6-1.705,9.646-3.103,14.322-3.103h155.164c4.676,0,12.723,1.396,14.321,3.103c0,0,4.822,2.567,12.978,2.567
	c11.742,0,21.261-9.518,21.261-21.26c0-8.153-2.568-12.978-2.568-12.978C248.007,216.443,246.613,208.396,246.613,203.721z"/>
</svg>
