<?xml version="1.0" encoding="utf-8"?>
<!DOCTYPE svg PUBLIC "-//W3C//DTD SVG 1.1//EN" "http://www.w3.org/Graphics/SVG/1.1/DTD/svg11.dtd">
<svg version="1.1" id="02" xmlns="http://www.w3.org/2000/svg" xmlns:xlink="http://www.w3.org/1999/xlink" x="0px" y="0px"
	 width="252.285px" height="252.285px" viewBox="0 0 252.285 252.285" enable-background="new 0 0 252.285 252.285"
	 xml:space="preserve">
<path fill="none" stroke="#000000" stroke-width="0.25" stroke-linecap="round" stroke-linejoin="round" d="M231.023,222.519
	c-2.232,0-1.417-4.32-1.417-8.504l-0.01-175.748c-0.134-3.959-0.793-8.503,1.427-8.503c4.698,0,8.504-3.808,8.504-8.504
	c0-4.696-3.806-8.504-8.504-8.504c-4.695,0-8.504,3.808-8.504,8.504c0,2.227-4.566,1.567-8.504,1.417H38.268
	c-4.187,0-8.504,0.818-8.504-1.417c0-4.696-3.808-8.504-8.504-8.504c-4.695,0-8.504,3.808-8.504,8.504
	c0,4.696,3.809,8.504,8.504,8.504c2.233,0,1.417,4.321,1.417,8.504l0.01,175.749c0.134,3.959,0.793,8.502-1.427,8.502
	c-4.698,0-8.504,3.809-8.504,8.504c0,4.697,3.806,8.504,8.504,8.504c4.696,0,8.504-3.807,8.504-8.504
	c0-2.227,4.566-1.566,8.504-1.416h175.748c4.187,0,8.504-0.818,8.504,1.416c0,4.697,3.808,8.504,8.504,8.504
	c4.695,0,8.504-3.807,8.504-8.504C239.527,226.328,235.719,222.519,231.023,222.519z"/>
<path fill="none" stroke="#000000" stroke-width="0.25" stroke-linecap="round" stroke-linejoin="round" d="M247.789,218.046
	c-2.983-2.799-5.427-9.646-5.427-14.321V48.56c0-4.677,2.441-11.522,5.427-14.323c0,0,4.494-4.82,4.494-12.977
	c0-11.74-9.519-21.26-21.261-21.26c-8.153,0-12.978,4.496-12.978,4.496c-2.799,2.984-9.646,5.426-14.321,5.426H48.56
	c-4.677,0-11.522-2.441-14.323-5.426c0,0-4.82-4.496-12.977-4.496C9.52,0,0,9.52,0,21.26c0,8.156,4.492,13.029,4.494,12.977
	c2.986,2.748,5.427,9.646,5.427,14.323v155.165c0,4.676-2.442,11.522-5.427,14.321c0,0-4.494,4.822-4.494,12.978
	c0,11.743,9.52,21.261,21.26,21.261c8.156,0,12.977-4.496,12.977-4.496c2.801-2.982,9.646-5.426,14.323-5.426h155.164
	c4.676,0,11.523,2.441,14.322,5.426c0,0,4.822,4.496,12.977,4.496c11.742,0,21.26-9.518,21.26-21.261
	C252.283,222.869,247.789,218.046,247.789,218.046z"/>
</svg>
