<?xml version="1.0" encoding="utf-8"?>
<!DOCTYPE svg PUBLIC "-//W3C//DTD SVG 1.1//EN" "http://www.w3.org/Graphics/SVG/1.1/DTD/svg11.dtd">
<svg version="1.1" id="03" xmlns="http://www.w3.org/2000/svg" xmlns:xlink="http://www.w3.org/1999/xlink" x="0px"
	 y="0px" width="252.285px" height="252.285px" viewBox="0 0 252.285 252.285" enable-background="new 0 0 252.285 252.285"
	 xml:space="preserve">
<path fill="none" stroke="#000000" stroke-width="0.25" stroke-linecap="round" stroke-linejoin="round" d="M231.023,222.52
	c-2.232,0-1.416-4.321-1.416-8.504l-0.01-175.749c-0.135-3.959-0.793-8.503,1.426-8.503c4.699,0,8.504-3.808,8.504-8.504
	c0-4.696-3.805-8.504-8.504-8.504c-4.695,0-8.504,3.808-8.504,8.504c0,2.227-4.566,1.567-8.504,1.417H38.268
	c-4.186,0-8.504,0.818-8.504-1.417c0-4.696-3.807-8.504-8.504-8.504c-4.695,0-8.504,3.808-8.504,8.504
	c0,4.696,3.809,8.504,8.504,8.504c2.234,0,1.418,4.321,1.418,8.504l0.01,175.749c0.133,3.959,0.793,8.503-1.428,8.503
	c-4.697,0-8.504,3.808-8.504,8.504s3.807,8.505,8.504,8.505c4.697,0,8.504-3.809,8.504-8.505c0-2.228,4.566-1.567,8.504-1.417
	h175.748c4.188,0,8.504-0.818,8.504,1.417c0,4.696,3.81,8.505,8.504,8.505c4.695,0,8.504-3.809,8.504-8.505
	S235.718,222.52,231.023,222.52z"/>
<path fill="none" stroke="#000000" stroke-width="0.25" stroke-linecap="round" stroke-linejoin="round" d="M248.431,218.046
	c-2.559-2.399-4.65-9.646-4.65-14.321V48.56c0-4.677,2.092-11.923,4.65-14.323c0,0,3.852-4.82,3.852-12.977
	c0-11.74-9.518-21.26-21.26-21.26c-8.154,0-12.977,3.854-12.977,3.854c-2.398,2.559-9.646,4.65-14.322,4.65H48.561
	c-4.678,0-11.924-2.092-14.324-4.65c0,0-4.82-3.854-12.977-3.854C9.52,0,0,9.52,0,21.26c0,8.156,3.85,13.08,3.854,12.977
	c2.561,2.297,4.65,9.646,4.65,14.323v155.165c0,4.676-2.094,11.922-4.65,14.321c0,0-3.854,4.822-3.854,12.978
	c0,11.743,9.52,21.261,21.26,21.261c8.156,0,12.977-3.854,12.977-3.854c2.4-2.559,9.646-4.65,14.324-4.65h155.164
	c4.676,0,11.924,2.092,14.321,4.65c0,0,4.822,3.854,12.978,3.854c11.742,0,21.261-9.518,21.261-21.261
	C252.283,222.869,248.431,218.046,248.431,218.046z"/>
</svg>
