<?xml version="1.0" encoding="utf-8"?>
<!DOCTYPE svg PUBLIC "-//W3C//DTD SVG 1.1//EN" "http://www.w3.org/Graphics/SVG/1.1/DTD/svg11.dtd">
<svg version="1.1" id="01" xmlns="http://www.w3.org/2000/svg" xmlns:xlink="http://www.w3.org/1999/xlink" x="0px" y="0px"
	 width="252.285px" height="252.285px" viewBox="0 0 252.285 252.285" enable-background="new 0 0 252.285 252.285"
	 xml:space="preserve">
<path fill="none" stroke="#000000" stroke-width="0.25" stroke-linecap="round" stroke-linejoin="round" d="M205.511,199.841
	c0,3.119-2.551,5.67-5.67,5.67h-147.4c-3.118,0-5.669-2.551-5.669-5.67V52.44c0-3.118,2.551-5.669,5.669-5.669h147.4
	c3.119,0,5.67,2.551,5.67,5.669V199.841L205.511,199.841z"/>
<circle fill="none" stroke="#000000" stroke-width="0.25" stroke-linecap="round" stroke-linejoin="round" cx="21.26" cy="21.26" r="4.252"/>
<circle fill="none" stroke="#000000" stroke-width="0.25" stroke-linecap="round" stroke-linejoin="round" cx="21.26" cy="231.023" r="4.252"/>
<circle fill="none" stroke="#000000" stroke-width="0.25" stroke-linecap="round" stroke-linejoin="round" cx="231.023" cy="21.26" r="4.252"/>
<circle fill="none" stroke="#000000" stroke-width="0.25" stroke-linecap="round" stroke-linejoin="round" cx="231.023" cy="231.023" r="4.252"/>
<path fill="none" stroke="#000000" stroke-width="0.25" stroke-linecap="round" stroke-linejoin="round" d="M247.146,218.046
	c-3.411-3.199-6.201-9.646-6.201-14.322V48.559c0-4.677,2.79-11.123,6.201-14.323c0,0,5.137-4.821,5.137-12.976
	c0-11.741-9.519-21.26-21.26-21.26c-8.154,0-12.977,5.137-12.977,5.137c-3.2,3.411-9.646,6.201-14.323,6.201H48.56
	c-4.677,0-11.123-2.791-14.323-6.201c0,0-4.821-5.137-12.977-5.137C9.519,0,0,9.519,0,21.26c0,8.155,5.137,12.976,5.137,12.976
	c3.411,3.201,6.201,9.646,6.201,14.323v155.165c0,4.677-2.791,11.123-6.201,14.322c0,0-5.137,4.822-5.137,12.978
	c0,11.741,9.519,21.259,21.26,21.259c8.156,0,12.977-5.137,12.977-5.137c3.201-3.41,9.646-6.201,14.323-6.201h155.164
	c4.677,0,11.123,2.791,14.322,6.201c0,0,4.822,5.137,12.978,5.137c11.741,0,21.261-9.518,21.261-21.259
	C252.283,222.869,247.146,218.046,247.146,218.046z"/>
</svg>
