<?xml version="1.0" encoding="utf-8"?>
<!DOCTYPE svg PUBLIC "-//W3C//DTD SVG 1.1//EN" "http://www.w3.org/Graphics/SVG/1.1/DTD/svg11.dtd">
<svg version="1.1" id="08" xmlns="http://www.w3.org/2000/svg" xmlns:xlink="http://www.w3.org/1999/xlink" x="0px"
	 y="0px" width="252.285px" height="252.285px" viewBox="0 0 252.285 252.285" enable-background="new 0 0 252.285 252.285"
	 xml:space="preserve">
<path fill="none" stroke="#000000" stroke-width="0.25" stroke-linecap="round" stroke-linejoin="round" d="M231.023,222.519
	c-2.232,0-1.416-4.32-1.416-8.504V38.267c-0.135-3.96-0.803-8.503,1.416-8.503c4.699,0,8.504-3.809,8.504-8.504
	c0-4.697-3.805-8.504-8.504-8.504c-4.695,0-8.504,3.807-8.504,8.504c0,2.227-4.566,1.566-8.504,1.416H38.268
	c-4.186,0-8.504,0.818-8.504-1.416c0-4.697-3.807-8.504-8.504-8.504c-4.695,0-8.504,3.807-8.504,8.504
	c0,4.695,3.809,8.504,8.504,8.504c2.234,0,1.418,4.32,1.418,8.504v175.749c0.133,3.959,0.803,8.502-1.418,8.502
	c-4.697,0-8.504,3.809-8.504,8.504c0,4.697,3.807,8.504,8.504,8.504c4.697,0,8.504-3.807,8.504-8.504
	c0-2.227,4.566-1.566,8.504-1.416h175.748c4.188,0,8.504-0.818,8.504,1.416c0,4.697,3.81,8.504,8.504,8.504
	c4.695,0,8.504-3.807,8.504-8.504C239.527,226.328,235.719,222.519,231.023,222.519z"/>
<path fill="none" stroke="#000000" stroke-width="0.25" stroke-linecap="round" stroke-linejoin="round" d="M251.641,218.046
	c-0.427-0.4-0.772-9.646-0.772-14.322l-0.002-155.165c0-4.676,0.35-13.922,0.774-14.322c0,0,0.644-4.82,0.644-12.977
	c0-11.74-9.519-21.26-21.261-21.26c-8.153,0-12.978,0.643-12.978,0.643c-0.399,0.426-9.646,0.775-14.321,0.775H48.561
	c-4.678,0-13.924-0.35-14.324-0.775c0,0-4.82-0.643-12.977-0.643C9.52,0,0,9.52,0,21.26c0,8.156,0.629,13.34,0.643,12.977
	c0.439,0.035,0.775,9.646,0.775,14.322v155.165c0,4.676-0.35,13.922-0.775,14.322c0,0-0.643,4.822-0.643,12.977
	c0,11.742,9.52,21.26,21.26,21.26c8.156,0,12.977-0.641,12.977-0.641c0.4-0.428,9.646-0.777,14.324-0.777h155.164
	c4.676,0,13.922,0.35,14.321,0.777c0,0,4.822,0.641,12.978,0.641c11.742,0,21.261-9.518,21.261-21.26
	C252.283,222.869,251.641,218.046,251.641,218.046z"/>
</svg>
