<?xml version="1.0" encoding="utf-8"?>
<!DOCTYPE svg PUBLIC "-//W3C//DTD SVG 1.1//EN" "http://www.w3.org/Graphics/SVG/1.1/DTD/svg11.dtd">
<svg version="1.1" id="07" xmlns="http://www.w3.org/2000/svg" xmlns:xlink="http://www.w3.org/1999/xlink" x="0px"
	 y="0px" width="252.285px" height="252.285px" viewBox="0 0 252.285 252.285" enable-background="new 0 0 252.285 252.285"
	 xml:space="preserve">
<path id="_x37__1_" fill="none" stroke="#000000" stroke-width="0.25" stroke-linecap="round" stroke-linejoin="round" d="
	M249.453,203.725l-0.002-155.166c0-4.676,0.696-13.521,1.549-14.322c0,0,1.285-4.82,1.285-12.977c0-11.74-9.519-21.26-21.261-21.26
	c-8.153,0-12.978,1.285-12.978,1.285c-0.799,0.852-9.646,1.551-14.321,1.551h-1.047v17.006c0,1.559,1.274,2.834,2.834,2.834h8.504
	c3.938,0.15,8.504,0.811,8.504-1.416c0-4.697,3.808-8.504,8.504-8.504c4.697,0,8.504,3.807,8.504,8.504
	c0,4.695-3.807,8.504-8.504,8.504c-2.221,0-1.562,4.543-1.428,8.504l0.01,175.748c0,4.182-0.815,8.504,1.418,8.504
	c4.695,0,8.504,3.808,8.504,8.504c0,4.695-3.81,8.504-8.504,8.504c-4.696,0-8.504-3.809-8.504-8.504
	c0-2.235-4.317-1.418-8.504-1.418H38.268c-3.938-0.149-8.504-0.81-8.504,1.418c0,4.695-3.807,8.504-8.504,8.504
	c-4.697,0-8.504-3.809-8.504-8.504c0-4.696,3.807-8.504,8.504-8.504c2.221,0,1.561-4.545,1.428-8.504l-0.01-175.748
	c0-4.184,0.816-8.504-1.418-8.504c-4.695,0-8.504-3.809-8.504-8.504c0-4.697,3.809-8.504,8.504-8.504
	c4.697,0,8.504,3.807,8.504,8.504c0,2.234,4.318,1.416,8.504,1.416h8.506c1.559,0,2.834-1.275,2.834-2.834V2.834h-1.047
	c-4.678,0-13.523-0.697-14.324-1.549c0,0-4.82-1.285-12.977-1.285C9.52,0,0,9.52,0,21.26c0,8.156,1.272,13.289,1.284,12.977
	c0.864,0.488,1.55,9.646,1.55,14.322v155.166c0,4.676-0.697,13.521-1.55,14.321c0,0-1.284,4.822-1.284,12.978
	c0,11.742,9.52,21.261,21.26,21.261c8.156,0,12.977-1.283,12.977-1.283c0.801-0.854,9.646-1.551,14.324-1.551h155.164
	c4.676,0,13.522,0.696,14.321,1.551c0,0,4.822,1.283,12.978,1.283c11.742,0,21.261-9.519,21.261-21.261
	c0-8.153-1.285-12.978-1.285-12.978C250.147,217.246,249.453,208.4,249.453,203.725z"/>
</svg>
